<?xml version="1.0" encoding="UTF-8"?>
<!-- Generator: Adobe Illustrator 25.2.0, SVG Export Plug-In . SVG Version: 6.00 Build 0)  -->
<svg xmlns="http://www.w3.org/2000/svg" xmlns:xlink="http://www.w3.org/1999/xlink" version="1.1" id="Capa_1" x="0px" y="0px" viewBox="0 0 512 512" style="enable-background:new 0 0 512 512;" xml:space="preserve" width="512" height="512">
<g>
	<path style="fill:#A8D5CB;" d="M171.514,29.299c0,0,52.53-55.542,128.094-13.68c62.766,34.772,37.864,118.996-29.292,131.432   c0,0-16.723,31.483-21.697,25.265c-4.975-6.218-18.654-23.629-18.654-23.629s-48.196-2.247-64.364-17.171   S133.956,62.473,171.514,29.299z"/>
	<g>
		<path style="fill:#241726;" d="M376.695,151.484c-0.051,0-0.129-0.005-0.18-0.011c-0.905-0.12-3.309-0.438-4.155-20.392    c-0.018-0.429,0.2-0.83,0.567-1.048c9.36-5.556,23.16-13.934,29.922-18.424c-8.042,2.728-24.682,9.053-35.809,13.407    c-0.303,0.113-0.641,0.102-0.93-0.036c-1.749-0.85-10.507-5.268-11.265-8.847c-0.095-0.451,0.025-0.914,0.338-1.299    c2.837-3.502,40.272-7.121,49.518-7.121c2.735,0,3.326,0.245,3.695,0.494h0.001c0.066,0.045,0.126,0.095,0.18,0.152    c0.005,0.005,0.009,0.009,0.014,0.014c0.007,0.005,0.012,0.011,0.018,0.018c0.079,0.073,0.149,0.159,0.205,0.256    c0.001,0,0.001,0.002,0.001,0.002c0.405,0.689,0.192,1.488-0.912,3.415c-2.327,4.062-8.996,13.439-16.218,22.805    C378.874,151.484,377.403,151.484,376.695,151.484z M374.711,131.675c0.337,7.157,1.214,15.151,2.169,17.224    c3.924-3.161,21.435-25.989,27.636-35.641C400.162,116.258,391.585,121.653,374.711,131.675z M357.299,116.095    c0.973,1.685,5.328,4.554,9.372,6.572c5.335-2.084,22.981-8.942,33.368-12.496C386.154,110.87,361.034,114.086,357.299,116.095z"/>
		<path style="fill:#241726;" d="M366.867,142.982c-0.058,0-0.115-0.002-0.169-0.009c-0.659-0.054-1.056-0.374-1.272-0.635    c-1.224-1.467-0.641-10.659,0.064-18.111c0.06-0.637,0.634-1.075,1.264-1.048c0.638,0.061,1.108,0.628,1.047,1.265    c-0.618,6.547-0.998,14.21-0.618,16.172c1.064-0.297,3.701-2.05,6.048-4.053c0.49-0.42,1.222-0.358,1.637,0.129    c0.416,0.488,0.358,1.22-0.129,1.635C373.077,139.748,369.052,142.98,366.867,142.982z"/>
	</g>
	<g>
		<path style="fill:#241726;" d="M116.178,448.732c-0.712,0-2.249-0.109-14.965-16.6c-7.215-9.355-13.886-18.732-16.222-22.805    c-1.11-1.937-1.326-2.737-0.92-3.429c0,0,0-0.002,0.001-0.002c0.044-0.075,0.095-0.143,0.153-0.204    c0.078-0.091,0.168-0.17,0.265-0.236c0.37-0.249,0.96-0.494,3.695-0.494c9.246,0,46.681,3.619,49.518,7.121    c0.313,0.386,0.433,0.848,0.338,1.299c-0.759,3.579-9.517,7.996-11.265,8.847c-0.29,0.141-0.628,0.152-0.93,0.036    c-11.018-4.311-27.44-10.554-35.66-13.308c6.815,4.513,20.482,12.809,29.773,18.324c0.367,0.218,0.585,0.619,0.567,1.048    c-0.845,19.955-3.25,20.272-4.155,20.392l-0.179,0.011C116.188,448.732,116.183,448.732,116.178,448.732z M88.371,410.506    c6.2,9.654,23.713,32.484,27.637,35.641c0.955-2.071,1.831-10.065,2.168-17.224C101.302,418.901,92.724,413.506,88.371,410.506z     M92.849,407.419c10.387,3.554,28.03,10.409,33.366,12.496c4.045-2.018,8.399-4.887,9.373-6.572    C131.853,411.334,106.733,408.118,92.849,407.419z"/>
		<path style="fill:#241726;" d="M126.02,440.23c-2.185,0-6.21-3.234-7.872-4.654c-0.488-0.415-0.545-1.148-0.129-1.635    c0.417-0.488,1.15-0.549,1.637-0.129c2.376,2.027,5.049,3.799,6.087,4.062c0.355-1.703-0.028-9.52-0.657-16.181    c-0.061-0.637,0.408-1.204,1.047-1.265c0.626-0.048,1.204,0.41,1.264,1.048c0.704,7.452,1.287,16.644,0.065,18.111    c-0.218,0.261-0.615,0.581-1.273,0.635C126.135,440.228,126.078,440.23,126.02,440.23z"/>
	</g>
	<path style="fill:#241726;" d="M383.89,85.692c-0.871,0-1.694,0-4.063-9.271c-7.89-1.483-8.577-2.397-8.808-2.703   c-0.218-0.288-0.313-0.825-0.217-1.172c0.139-0.501,0.461-1.662,9.441-5.325c3.193-8.439,4.275-8.436,4.996-8.436   c0.366,0,0.874,0.263,1.093,0.556c0.577,0.767,1.11,2.778,1.916,5.998c0.256,1.021,0.565,2.252,0.739,2.783   c0.469,0.209,1.527,0.583,2.404,0.894c4.615,1.631,5.806,2.186,6.023,3.272c0.081,0.401-0.122,0.993-0.425,1.268   c-0.935,0.846-5.411,2.529-7.747,3.37c-3.768,8.677-4.571,8.724-5.281,8.765C383.94,85.692,383.911,85.692,383.89,85.692z    M373.941,72.705c1.565,0.451,4.488,1.104,7.036,1.567c0.449,0.082,0.807,0.417,0.918,0.86c0.661,2.633,1.527,5.633,2.14,7.305   c0.865-1.563,2.198-4.393,3.276-6.894c0.127-0.295,0.372-0.524,0.676-0.633c2.175-0.776,4.632-1.73,6.129-2.397   c-1.062-0.447-2.544-0.971-3.498-1.309c-2.642-0.934-3.139-1.136-3.475-1.585c-0.293-0.39-0.479-1.052-1.145-3.715   c-0.259-1.03-0.657-2.622-1.007-3.783c-0.782,1.492-1.891,4.091-2.751,6.391c-0.113,0.306-0.35,0.549-0.652,0.671   C378.77,70.321,375.573,71.773,373.941,72.705z"/>
	<path style="fill:#241726;" d="M460.008,479.856c-0.87,0-1.693,0-4.062-9.269c-7.89-1.483-8.578-2.399-8.809-2.706   c-0.218-0.288-0.313-0.826-0.217-1.172c0.139-0.501,0.462-1.66,9.442-5.323c3.193-8.439,4.276-8.439,4.997-8.439   c0.365,0,0.872,0.263,1.091,0.553c0.579,0.771,1.11,2.78,1.917,6.003c0.255,1.018,0.565,2.252,0.739,2.783   c0.468,0.206,1.524,0.581,2.399,0.889c4.62,1.635,5.811,2.191,6.028,3.277c0.081,0.401-0.124,0.993-0.426,1.268   c-0.934,0.844-5.41,2.526-7.746,3.37c-3.77,8.681-4.573,8.724-5.284,8.763C460.058,479.856,460.03,479.856,460.008,479.856z    M450.059,466.868c1.565,0.454,4.489,1.107,7.037,1.569c0.449,0.082,0.807,0.417,0.918,0.86c0.661,2.633,1.527,5.631,2.139,7.302   c0.866-1.56,2.199-4.391,3.277-6.892c0.127-0.295,0.372-0.524,0.676-0.633c2.174-0.776,4.631-1.73,6.128-2.397   c-1.062-0.449-2.547-0.973-3.502-1.311c-2.637-0.932-3.133-1.134-3.469-1.581c-0.295-0.392-0.481-1.055-1.149-3.717   c-0.257-1.03-0.657-2.622-1.006-3.783c-0.782,1.49-1.891,4.091-2.751,6.391c-0.113,0.306-0.35,0.549-0.653,0.671   C454.889,464.487,451.69,465.938,450.059,466.868z"/>
	<path style="fill:#241726;" d="M90.379,214.004c-0.871,0-1.695,0-4.064-9.271c-7.89-1.483-8.577-2.397-8.808-2.703   c-0.218-0.288-0.313-0.825-0.217-1.172c0.139-0.501,0.462-1.662,9.442-5.325c3.193-8.439,4.275-8.436,4.996-8.436   c0.366,0,0.874,0.263,1.093,0.556c0.578,0.767,1.11,2.78,1.917,6.003c0.255,1.018,0.564,2.25,0.738,2.78   c0.468,0.206,1.523,0.581,2.396,0.889c4.621,1.633,5.814,2.188,6.031,3.275c0.081,0.401-0.122,0.993-0.425,1.268   c-0.935,0.846-5.411,2.529-7.747,3.37c-3.769,8.677-4.571,8.724-5.281,8.765C90.429,214.004,90.401,214.004,90.379,214.004z    M80.43,201.016c1.565,0.451,4.488,1.104,7.036,1.567c0.449,0.082,0.807,0.417,0.918,0.86c0.661,2.633,1.526,5.633,2.139,7.305   c0.866-1.563,2.199-4.393,3.277-6.894c0.127-0.295,0.372-0.524,0.676-0.633c2.175-0.776,4.632-1.73,6.129-2.397   c-1.064-0.447-2.549-0.973-3.505-1.311c-2.635-0.93-3.131-1.132-3.466-1.578c-0.295-0.392-0.481-1.055-1.148-3.715   c-0.257-1.032-0.657-2.624-1.007-3.787c-0.782,1.492-1.891,4.091-2.751,6.391c-0.113,0.306-0.35,0.549-0.652,0.671   C85.258,198.632,82.061,200.084,80.43,201.016z"/>
	<path style="fill:#241726;" d="M76.445,466.353c-0.871,0-1.694,0-4.063-9.269c-7.89-1.483-8.578-2.399-8.809-2.706   c-0.217-0.29-0.312-0.825-0.215-1.172c0.139-0.501,0.462-1.66,9.442-5.323c3.193-8.439,4.276-8.439,4.997-8.439   c0.365,0,0.872,0.263,1.091,0.553c0.579,0.771,1.11,2.78,1.917,6.003c0.255,1.018,0.565,2.252,0.739,2.783   c0.468,0.206,1.524,0.581,2.399,0.889c4.62,1.635,5.811,2.191,6.028,3.277c0.081,0.401-0.124,0.993-0.426,1.268   c-0.933,0.846-5.41,2.529-7.746,3.37c-3.769,8.679-4.573,8.724-5.284,8.763C76.494,466.353,76.466,466.353,76.445,466.353z    M66.496,453.365c1.565,0.454,4.489,1.107,7.037,1.569c0.449,0.082,0.807,0.417,0.918,0.859c0.661,2.633,1.526,5.633,2.139,7.305   c0.866-1.563,2.199-4.393,3.277-6.894c0.127-0.295,0.372-0.524,0.676-0.633c2.175-0.776,4.633-1.73,6.129-2.397   c-1.062-0.449-2.548-0.973-3.503-1.311c-2.637-0.932-3.133-1.134-3.469-1.581c-0.295-0.392-0.481-1.055-1.149-3.717   c-0.257-1.03-0.657-2.622-1.006-3.783c-0.782,1.49-1.891,4.091-2.751,6.391c-0.113,0.306-0.35,0.549-0.653,0.671   C71.325,450.984,68.126,452.436,66.496,453.365z"/>
	<path style="fill:#241726;" d="M423.787,154.373c-4.8,0-8.704-3.905-8.704-8.704c0-4.799,3.904-8.704,8.704-8.704   c4.8,0,8.704,3.905,8.704,8.704C432.491,150.468,428.586,154.373,423.787,154.373z M423.787,139.288   c-3.519,0-6.382,2.862-6.382,6.382c0,3.52,2.863,6.382,6.382,6.382c3.519,0,6.382-2.862,6.382-6.382   C430.168,142.15,427.305,139.288,423.787,139.288z"/>
	<path style="fill:#241726;" d="M35.971,326.22c-4.8,0-8.704-3.905-8.704-8.704s3.904-8.704,8.704-8.704   c4.8,0,8.704,3.905,8.704,8.704S40.771,326.22,35.971,326.22z M35.971,311.134c-3.519,0-6.382,2.862-6.382,6.382   s2.863,6.382,6.382,6.382c3.519,0,6.382-2.862,6.382-6.382S39.489,311.134,35.971,311.134z"/>
	<path style="fill:#241726;" d="M484.165,333.187c-4.8,0-8.704-3.905-8.704-8.704c0-4.799,3.904-8.704,8.704-8.704   c4.8,0,8.704,3.905,8.704,8.704C492.869,329.282,488.965,333.187,484.165,333.187z M484.165,318.101   c-3.519,0-6.382,2.862-6.382,6.382c0,3.52,2.863,6.382,6.382,6.382c3.519,0,6.382-2.862,6.382-6.382   C490.547,320.963,487.684,318.101,484.165,318.101z"/>
	<path style="fill:#241726;" d="M288.52,512c-4.8,0-8.704-3.905-8.704-8.704c0-4.799,3.904-8.704,8.704-8.704   c4.8,0,8.704,3.905,8.704,8.704C297.224,508.095,293.32,512,288.52,512z M288.52,496.914c-3.519,0-6.382,2.862-6.382,6.382   c0,3.52,2.863,6.382,6.382,6.382s6.382-2.862,6.382-6.382C294.902,499.776,292.039,496.914,288.52,496.914z"/>
	<g>
		<path style="fill:#FFFFFF;" d="M68.747,86.358c0,0-2.601-18.36,15.152-12.584s12.151,22.663,5.349,16.969    c-6.802-5.694,5.665-25.352,19.29-16.786s10.762,25.474,1.169,26.814s5.623-19.709,17.848-6.921s-13.962,36.576-24.85,28.031    s-2.569-22.592,0.105-14.107c2.675,8.485-4.233,16.898-23.397,16.755s-10.73-29.707-3.949-21.191    c6.781,8.515-4.243,18.309-17.858,8.332S59.207,80.644,68.747,86.358z"/>
		<path style="fill:#241726;" d="M79.894,125.692l-0.489-0.002c-6.267-0.048-10.703-3.22-12.295-8.745    c-3.311-0.379-6.815-1.866-10.189-4.341c-5.34-3.912-7.173-9.91-5.03-16.46c2.185-6.681,8.051-11.915,13.353-11.915    c0.762,0,1.502,0.102,2.212,0.306c-0.058-2.542,0.272-6.974,2.88-9.976c2.856-3.288,7.584-3.951,13.922-1.891    c2.479,0.807,4.65,1.866,6.472,3.157c3.04-3.293,6.951-5.159,10.878-5.159c2.573,0,5.112,0.776,7.548,2.309    c5.89,3.703,9.492,9.457,9.821,15.575c3.441,0.048,6.61,1.56,9.417,4.497c3.81,3.985,4.538,9.387,2.05,15.206    c-3.778,8.842-14.122,16.598-22.135,16.598c-0.001,0-0.001,0-0.001,0c-2.454,0-4.58-0.692-6.319-2.057    c-0.865-0.68-1.648-1.417-2.335-2.202C95.364,123.932,88.571,125.692,79.894,125.692z M69.57,117.016    c1.112,3.134,3.75,6.307,9.854,6.352l0.471,0.002c10.074,0,15.494-2.386,18.364-4.633c-2.774-4.35-2.608-9.135-1.119-12.103    c0.845-1.683,2.076-2.649,3.379-2.649c0.865,0,2.458,0.447,3.402,3.44c1.337,4.245,0.406,8.416-2.549,11.602    c0.6,0.689,1.288,1.34,2.052,1.939c1.321,1.039,2.965,1.563,4.885,1.563c0,0,0.001,0,0.002,0c7.07,0,16.603-7.239,20-15.188    c1.484-3.474,2.414-8.498-1.593-12.688c-2.361-2.47-4.976-3.742-7.773-3.78c-0.498,5.883-4.117,10.357-9.075,11.049    c-3.187,0.449-4.275-1.218-4.344-2.76c-0.155-3.443,4.791-9.287,11.137-10.418c-0.266-5.391-3.477-10.493-8.741-13.804    c-5.19-3.263-11.096-2.207-15.379,2.349c4.258,3.941,5.08,8.838,3.929,12.112c-0.794,2.256-2.51,3.66-4.48,3.66h-0.001    c-1.182,0-2.355-0.481-3.486-1.426c-3.739-3.13-2.573-9.348,0.756-14.006c-1.604-1.114-3.523-2.037-5.721-2.751    c-5.375-1.746-9.214-1.365-11.445,1.2c-3.074,3.531-2.207,10.053-2.198,10.119c0.061,0.442-0.136,0.882-0.509,1.129    c-0.373,0.243-0.853,0.259-1.237,0.027c-0.889-0.531-1.866-0.801-2.907-0.801c-4.285,0-9.286,4.626-11.146,10.316    c-0.856,2.617-2.161,9.205,4.195,13.863c2.789,2.043,5.639,3.34,8.329,3.799c-0.526-4.291,0.543-9.164,2.712-11.883    c1.049-1.315,2.277-2.009,3.55-2.009c0.873,0,2.187,0.342,3.489,1.978c2.404,3.018,2.97,6.436,1.551,9.38    C76.524,114.902,73.366,116.782,69.57,117.016z M100.518,106.307c-0.248,0-0.799,0.365-1.303,1.37    c-1.108,2.207-1.258,5.953,0.765,9.423c2.152-2.529,2.767-5.667,1.724-8.976C101.251,106.688,100.73,106.307,100.518,106.307z     M72.884,102.96c-0.534,0-1.151,0.404-1.735,1.136c-1.645,2.061-2.822,6.472-2.16,10.618c3.151-0.063,5.76-1.481,6.843-3.726    c1.016-2.109,0.551-4.633-1.276-6.926C74.156,103.558,73.541,102.96,72.884,102.96z M116.584,91.124    c-5.198,1.166-8.826,6.007-8.739,7.933c0.011,0.261,0.027,0.615,1.039,0.615c0.203,0,0.424-0.016,0.664-0.05    C113.281,99.1,116.044,95.687,116.584,91.124z M91.068,79.089c-2.92,4.114-3.443,8.781-1.074,10.763    c1.787,1.497,3.53,0.932,4.286-1.22C95.165,86.112,94.466,82.295,91.068,79.089z"/>
	</g>
	<g>
		<path style="fill:#FFFFFF;" d="M407.796,403.732c0,0-2.601-18.36,15.152-12.584c17.753,5.775,12.151,22.663,5.349,16.969    s5.665-25.352,19.29-16.786s10.762,25.474,1.169,26.814c-9.592,1.339,5.623-19.709,17.848-6.921    c12.225,12.788-13.962,36.576-24.85,28.031c-10.888-8.546-2.569-22.592,0.105-14.107c2.675,8.485-4.233,16.898-23.397,16.755    c-19.164-0.143-10.73-29.707-3.949-21.191c6.781,8.515-4.243,18.309-17.858,8.332S398.256,398.018,407.796,403.732z"/>
		<path style="fill:#241726;" d="M418.943,443.067l-0.489-0.002c-6.267-0.048-10.703-3.22-12.295-8.747    c-3.311-0.376-6.815-1.866-10.189-4.338c-5.34-3.912-7.173-9.913-5.031-16.46c2.186-6.681,8.052-11.917,13.353-11.917    c0.763,0,1.502,0.104,2.213,0.308c-0.059-2.544,0.271-6.974,2.88-9.978c2.853-3.284,7.581-3.953,13.922-1.889    c2.479,0.807,4.65,1.866,6.472,3.157c3.041-3.293,6.952-5.159,10.878-5.159c2.573,0,5.112,0.776,7.548,2.309    c5.89,3.701,9.492,9.455,9.821,15.575c3.441,0.048,6.61,1.56,9.417,4.497c3.81,3.987,4.538,9.387,2.049,15.208    c-3.778,8.84-14.122,16.596-22.135,16.596c-2.454,0-4.58-0.692-6.319-2.057c-0.865-0.68-1.648-1.417-2.335-2.202    C434.412,441.307,427.619,443.067,418.943,443.067z M408.618,434.388c1.112,3.136,3.75,6.309,9.854,6.354l0.471,0.002    c10.074,0,15.494-2.386,18.364-4.633c-2.774-4.35-2.608-9.135-1.119-12.103c0.845-1.683,2.077-2.649,3.379-2.649    c0.865,0,2.458,0.447,3.402,3.438c1.337,4.245,0.406,8.418-2.549,11.604c0.6,0.689,1.288,1.34,2.052,1.939    c1.321,1.036,2.965,1.563,4.886,1.563c7.07,0,16.603-7.239,20-15.188c1.485-3.474,2.415-8.498-1.592-12.688    c-2.361-2.47-4.976-3.742-7.773-3.78c-0.498,5.883-4.118,10.357-9.075,11.049c-3.193,0.451-4.275-1.218-4.344-2.76    c-0.155-3.443,4.791-9.287,11.137-10.418c-0.266-5.391-3.477-10.493-8.741-13.804c-5.189-3.261-11.093-2.207-15.379,2.349    c4.259,3.941,5.081,8.838,3.929,12.112c-0.794,2.256-2.51,3.66-4.481,3.66c-1.166,0-2.371-0.494-3.486-1.426    c-3.74-3.132-2.574-9.348,0.756-14.006c-1.604-1.113-3.523-2.036-5.721-2.751c-5.376-1.749-9.222-1.363-11.45,1.204    c-3.081,3.547-2.201,10.046-2.192,10.112c0.062,0.444-0.135,0.882-0.508,1.132c-0.375,0.24-0.855,0.256-1.238,0.027    c-0.889-0.533-1.868-0.803-2.908-0.803c-4.285,0-9.284,4.629-11.145,10.316c-0.856,2.617-2.161,9.207,4.195,13.865    c2.788,2.043,5.639,3.338,8.329,3.799c-0.526-4.293,0.543-9.167,2.712-11.886c1.049-1.315,2.277-2.009,3.55-2.009    c0.873,0,2.187,0.342,3.489,1.978c2.404,3.018,2.97,6.438,1.551,9.382C415.571,432.277,412.415,434.155,408.618,434.388z     M439.566,423.682c-0.247,0-0.799,0.365-1.303,1.367c-1.108,2.209-1.258,5.955,0.765,9.425c2.152-2.529,2.767-5.67,1.724-8.978    C440.3,424.061,439.778,423.682,439.566,423.682z M411.933,420.332c-0.534,0-1.151,0.404-1.735,1.136    c-1.645,2.061-2.822,6.472-2.16,10.62c3.151-0.066,5.76-1.481,6.843-3.728c1.016-2.107,0.551-4.633-1.276-6.926    C413.205,420.931,412.589,420.332,411.933,420.332z M455.633,408.499c-5.198,1.166-8.826,6.007-8.739,7.933    c0.011,0.261,0.027,0.615,1.039,0.615c0.203,0,0.424-0.016,0.664-0.05C452.329,416.475,455.093,413.062,455.633,408.499z     M430.116,396.464c-2.92,4.114-3.443,8.781-1.074,10.763c1.787,1.499,3.53,0.932,4.286-1.222    C434.214,403.487,433.514,399.67,430.116,396.464z"/>
	</g>
	<g>
		<path style="fill:#EC7E96;" d="M243.945,393.814c0,0,8.664-198.182-21.659-212.261c-30.323-14.079-63.895,24.908-44.402,40.07    s36.821-45.484-20.576-25.991s-12.996,83.388,11.913,67.144c24.908-16.244-36.821-57.397-63.895-7.581s24.908,69.31,32.489,56.314    s-27.074-22.742-34.655,18.41c-7.581,41.153,48.733,61.729,61.729,37.904c12.996-23.825-47.65-11.913-28.157,28.157    s107.213-4.332,64.978,1.083S245.028,499.944,243.945,393.814z"/>
		<path style="fill:#241726;" d="M204.253,233.906c-3.638,0-8.185-1.415-13.645-5.663c-10.32-8.026-15.378-16.102-15.036-24.005    c0.43-9.899,9.18-15.673,9.553-15.913c0.537-0.342,1.255-0.195,1.603,0.342c0.349,0.537,0.196,1.256-0.341,1.606    c-0.081,0.054-8.13,5.391-8.495,14.085c-0.299,7.103,4.46,14.521,14.142,22.052c7.658,5.958,14.376,6.81,19.424,2.461    c6.752-5.815,8.732-19.723,5.282-25.86c-1.378-2.454-3.416-3.263-6.047-2.406c-6.909,2.241-10.908,5.003-11.261,7.774    c-0.359,2.83,3.052,5.239,4.107,5.91c0.541,0.345,0.701,1.061,0.356,1.603c-0.344,0.537-1.061,0.698-1.603,0.356    c-3.646-2.32-5.528-5.293-5.164-8.162c0.486-3.821,4.809-7.082,12.848-9.69c3.726-1.209,6.848,0.025,8.788,3.477    c3.97,7.06,2.039,22.014-5.791,28.758C211.178,232.178,208.272,233.906,204.253,233.906z"/>
		<path style="fill:#241726;" d="M151.131,309.801c-5.697,0-10.31-3.145-13.255-9.155c-7.919-16.154-9.282-33.051-3.242-40.177    c2.617-3.082,6.299-4.03,10.646-2.719c9.307,2.792,14.241,12.906,13.474,20.673c-0.46,4.669-2.98,7.67-6.741,8.028    c-0.655,0.045-1.205-0.408-1.265-1.045c-0.061-0.64,0.407-1.206,1.045-1.268c3.703-0.352,4.486-4.273,4.65-5.942    c0.59-5.976-3.194-15.632-11.83-18.224c-3.439-1.027-6.207-0.358-8.208,1.998c-4.578,5.4-4.887,20.431,3.555,37.655    c4.059,8.28,10.514,8.543,15.202,7.293c13.481-3.565,28.789-23.696,27.58-43.349c-1.766-28.677-51.646-27.699-52.141-27.661    c-0.011,0-0.022,0-0.032,0c-0.627,0-1.144-0.499-1.161-1.129c-0.017-0.642,0.489-1.175,1.129-1.193    c0.13,0.002,13.184-0.313,26.295,3.109c17.673,4.613,27.434,13.859,28.226,26.733c1.295,21.048-14.689,41.869-29.304,45.735    C154.149,309.59,152.604,309.799,151.131,309.801z"/>
		<path style="fill:#241726;" d="M225.57,293.439c-2.726,0-5.717-0.324-8.97-0.975c-13.429-2.685-18.425-9.865-20.252-15.417    c-3.324-10.096,1.174-21.311,6.758-27.459c3.851-4.243,8.271-6.193,12.122-5.307c8.977,2.025,12.722,9.375,13.202,15.054    c0.46,5.45-1.788,10.164-5.595,11.729c-2.126,0.878-4.231,0.884-6.26,0.027c-4.968-2.1-7.669-8.736-7.782-9.017    c-0.238-0.594,0.051-1.27,0.646-1.508c0.594-0.238,1.27,0.052,1.509,0.644c0.025,0.061,2.463,6.028,6.536,7.745    c1.457,0.612,2.916,0.601,4.466-0.036c2.865-1.182,4.539-4.953,4.165-9.389c-0.433-5.13-3.655-11.237-11.398-12.986    c-3.022-0.669-6.618,0.998-9.892,4.604c-5.31,5.846-9.169,16.369-6.272,25.173c2.344,7.119,8.741,11.913,18.502,13.865    c9.622,1.919,16.671,0.871,20.957-3.132c5.636-5.259,4.573-14.042,4.562-14.131c-0.083-0.635,0.365-1.218,1-1.299    c0.621-0.088,1.218,0.361,1.302,0.998c0.054,0.406,1.241,10.028-5.264,16.115C236.268,291.869,231.565,293.439,225.57,293.439z"/>
		<path style="fill:#241726;" d="M144.833,372.003c-2.896,0-5.582-0.757-7.562-2.32c-6.996-5.524-11.661-24.547-7.799-31.802    c1.443-2.717,3.936-3.667,7.017-2.681c7.902,2.529,11.245,8.865,11.707,13.521c0.328,3.309-0.701,6.048-2.685,7.153    c-0.559,0.308-1.268,0.107-1.578-0.451c-0.312-0.56-0.11-1.268,0.451-1.581c1.126-0.626,1.729-2.592,1.501-4.892    c-0.392-3.957-3.274-9.353-10.103-11.536c-1.998-0.64-3.352-0.145-4.259,1.558c-3.334,6.261,1.1,24.082,7.188,28.888    c3.926,3.102,11.373,2.245,16.598-1.903c3.69-2.928,11.321-11.768,2.499-30.545c-13.808-29.4-45.181-21.708-45.498-21.63    c-0.607,0.166-1.253-0.213-1.414-0.835c-0.16-0.621,0.214-1.254,0.836-1.415c0.335-0.084,33.562-8.228,48.179,22.891    c9.526,20.281,0.965,30.083-3.158,33.355C153.256,370.551,148.844,372.003,144.833,372.003z"/>
		<path style="fill:#241726;" d="M204.933,349.445c-2.772,0-5.989-0.401-9.722-1.345c-8.495-2.145-14.874-6.767-18.96-13.732    c-9.478-16.158-3.47-39.129-3.209-40.1c0.168-0.617,0.804-0.98,1.422-0.819c0.619,0.166,0.986,0.803,0.821,1.422    c-0.061,0.227-6.014,23.016,2.973,38.328c3.76,6.404,9.655,10.661,17.522,12.65c10.578,2.674,18.162,1.098,21.933-4.552    c5.537-8.298,1.968-23.633-4.837-32.75c-4.226-5.663-9.087-8.148-13.327-6.842c-10.056,3.114-11.646,10.656-9.952,16.172    c1.373,4.47,5.247,8.488,9.735,7.114c0.619-0.186,1.262,0.161,1.449,0.773c0.186,0.612-0.16,1.261-0.773,1.449    c-5.925,1.798-10.929-3.111-12.631-8.654c-2.166-7.053,0.547-15.687,11.485-19.072c5.238-1.619,11.026,1.172,15.875,7.67    c7.25,9.713,11.187,26.019,4.908,35.428C217.374,345.989,213.064,349.445,204.933,349.445z"/>
		<path style="fill:#241726;" d="M197.337,399.679c-5.988,0-10.484-2.556-13.186-4.683c-8.187-6.441-12.821-18.968-10.119-27.357    c1.479-4.592,4.967-7.237,9.82-7.45c12.882-0.553,21.109,6.47,21.568,13.589c0.259,3.998-2.281,8.91-10.288,9.597    c-0.662,0.032-1.202-0.42-1.256-1.057c-0.056-0.64,0.418-1.202,1.057-1.256c5.295-0.454,8.425-3.189,8.171-7.135    c-0.32-4.926-6.596-11.983-19.152-11.416c-4.886,0.211-6.889,3.293-7.709,5.84c-2.168,6.731,1.07,18.31,9.346,24.821    c6.996,5.506,15.735,5.547,24.606,0.113c8.028-4.912,12.386-10.847,12.953-17.637c1.165-13.943-13.885-27.203-14.037-27.336    c-0.484-0.42-0.535-1.154-0.115-1.637c0.422-0.481,1.157-0.537,1.639-0.113c0.658,0.572,16.088,14.176,14.827,29.28    c-0.632,7.57-5.361,14.106-14.056,19.426C206.098,398.516,201.377,399.679,197.337,399.679z"/>
		<path style="fill:#241726;" d="M200.598,431.145c-0.029,0-0.06,0-0.091-0.005c-0.638-0.048-1.117-0.605-1.068-1.245    c0.054-0.712,1.449-17.528,10.793-24.873c3.613-2.839,7.928-3.883,12.811-3.08c11.027,1.794,13.626,7.518,14.194,10.768    c1.12,6.411-3.411,13.283-8.251,15.972c-2.277,1.265-4.084,0.848-5.2,0.272c-5.43-2.794-7.02-15.487-7.183-16.925    c-0.073-0.637,0.384-1.213,1.022-1.286c0.651-0.075,1.213,0.386,1.285,1.023c0.407,3.567,2.268,13.235,5.939,15.124    c0.915,0.472,1.869,0.395,3.011-0.24c4.163-2.311,8.005-8.305,7.091-13.539c-0.81-4.633-5.055-7.702-12.279-8.879    c-4.228-0.683-7.925,0.195-11.003,2.615c-8.55,6.722-9.9,23.061-9.913,23.225C201.708,430.683,201.199,431.145,200.598,431.145z"/>
	</g>
	<g>
		<path style="fill:#EC7E96;" d="M259.684,393.814c0,0-8.664-198.182,21.659-212.261c30.323-14.079,63.895,24.908,44.402,40.07    s-36.821-45.484,20.576-25.991s12.996,83.388-11.913,67.144c-24.908-16.244,36.821-57.397,63.895-7.581    s-24.908,69.31-32.489,56.314s27.074-22.742,34.655,18.41s-48.733,61.729-61.729,37.904s47.65-11.913,28.157,28.157    c-19.493,40.07-107.213-4.332-64.978,1.083S258.601,499.944,259.684,393.814z"/>
		<path style="fill:#241726;" d="M299.376,233.906c-4.02,0-6.925-1.728-8.72-3.275c-7.831-6.745-9.761-21.699-5.791-28.758    c1.94-3.452,5.063-4.676,8.787-3.477c8.039,2.608,12.362,5.869,12.848,9.693c0.365,2.867-1.517,5.84-5.163,8.16    c-0.543,0.342-1.259,0.181-1.603-0.356c-0.345-0.542-0.185-1.259,0.356-1.603c1.055-0.671,4.466-3.08,4.107-5.908    c-0.353-2.774-4.352-5.536-11.262-7.776c-2.63-0.857-4.669-0.048-6.046,2.406c-3.452,6.134-1.471,20.045,5.282,25.86    c5.049,4.352,11.765,3.497,19.423-2.461c9.682-7.531,14.441-14.949,14.142-22.052c-0.365-8.695-8.415-14.031-8.495-14.085    c-0.537-0.349-0.691-1.068-0.341-1.606c0.348-0.537,1.066-0.685,1.603-0.342c0.373,0.24,9.123,6.014,9.553,15.913    c0.342,7.903-4.716,15.979-15.036,24.005C307.561,232.491,303.013,233.906,299.376,233.906z"/>
		<path style="fill:#241726;" d="M352.498,309.801c-1.473,0-3.017-0.211-4.624-0.637c-14.615-3.864-30.6-24.688-29.305-45.735    c0.793-12.874,10.553-22.12,28.226-26.733c13.113-3.422,26.165-3.107,26.295-3.109c0.641,0.018,1.146,0.551,1.129,1.193    c-0.017,0.64-0.505,1.075-1.193,1.129c-0.506-0.029-50.376-1.011-52.141,27.661c-1.209,19.653,14.099,39.784,27.581,43.349    c4.692,1.247,11.142,0.984,15.201-7.293c8.442-17.224,8.132-32.255,3.556-37.655c-1.999-2.356-4.759-3.028-8.208-1.998    c-8.636,2.592-12.42,12.249-11.831,18.224c0.164,1.669,0.948,5.59,4.651,5.942c0.638,0.061,1.107,0.628,1.045,1.268    c-0.06,0.637-0.619,1.095-1.265,1.045c-3.761-0.358-6.282-3.359-6.742-8.028c-0.767-7.767,4.168-17.882,13.475-20.673    c4.341-1.313,8.029-0.367,10.646,2.719c6.04,7.126,4.677,24.023-3.243,40.177C362.808,306.655,358.193,309.799,352.498,309.801z"/>
		<path style="fill:#241726;" d="M278.059,293.439c-5.994,0-10.697-1.569-14.041-4.699c-6.505-6.089-5.319-15.711-5.265-16.117    c0.084-0.637,0.662-1.084,1.302-0.998c0.635,0.082,1.083,0.664,1,1.299c-0.011,0.088-1.073,8.872,4.563,14.131    c4.286,4.003,11.335,5.05,20.956,3.132c9.762-1.953,16.159-6.747,18.502-13.865c2.898-8.804-0.962-19.326-6.271-25.173    c-3.275-3.604-6.876-5.268-9.893-4.604c-7.742,1.748-10.964,7.856-11.397,12.986c-0.374,4.436,1.299,8.207,4.165,9.389    c1.551,0.637,3.015,0.649,4.471,0.034c4.084-1.728,6.505-7.681,6.529-7.74c0.237-0.596,0.916-0.884,1.509-0.646    c0.595,0.238,0.886,0.914,0.647,1.508c-0.113,0.281-2.814,6.917-7.782,9.017c-2.03,0.857-4.135,0.846-6.259-0.027    c-3.807-1.565-6.055-6.28-5.595-11.729c0.48-5.679,4.224-13.029,13.201-15.054c3.847-0.882,8.27,1.064,12.123,5.307    c5.585,6.148,10.08,17.362,6.758,27.459c-1.828,5.552-6.824,12.732-20.253,15.417    C283.777,293.114,280.785,293.439,278.059,293.439z"/>
		<path style="fill:#241726;" d="M358.795,372.003c-4.01,0-8.422-1.451-11.917-4.225c-4.123-3.272-12.685-13.074-3.159-33.355    c14.618-31.119,47.844-22.978,48.179-22.891c0.62,0.161,0.994,0.791,0.836,1.413c-0.16,0.619-0.793,0.993-1.413,0.837    c-1.289-0.329-31.711-7.729-45.499,21.63c-8.821,18.78-1.189,27.618,2.501,30.548c5.224,4.146,12.671,5.003,16.596,1.9    c6.088-4.806,10.522-22.626,7.189-28.888c-0.906-1.703-2.26-2.198-4.26-1.558c-6.828,2.184-9.71,7.579-10.102,11.536    c-0.228,2.3,0.375,4.266,1.501,4.892c0.561,0.313,0.763,1.021,0.451,1.581c-0.311,0.558-1.021,0.76-1.578,0.451    c-1.984-1.104-3.013-3.844-2.685-7.153c0.462-4.656,3.804-10.992,11.705-13.521c3.081-0.984,5.574-0.034,7.018,2.681    c3.861,7.255-0.804,26.277-7.799,31.802C364.378,371.245,361.691,372.003,358.795,372.003z"/>
		<path style="fill:#241726;" d="M298.697,349.445c-8.134,0-12.441-3.456-14.712-6.858c-6.28-9.409-2.342-25.715,4.908-35.428    c4.849-6.495,10.635-9.291,15.876-7.67c10.939,3.386,13.651,12.019,11.485,19.072c-1.701,5.538-6.695,10.459-12.631,8.654    c-0.613-0.188-0.959-0.837-0.773-1.449c0.187-0.612,0.832-0.959,1.449-0.773c4.473,1.37,8.363-2.647,9.735-7.114    c1.693-5.515,0.103-13.058-9.952-16.172c-4.239-1.306-9.103,1.177-13.328,6.842c-6.806,9.117-10.373,24.452-4.836,32.75    c3.771,5.649,11.358,7.225,21.933,4.552c7.869-1.989,13.767-6.248,17.526-12.657c8.992-15.328,3.031-38.095,2.97-38.322    c-0.167-0.619,0.201-1.256,0.82-1.422c0.624-0.163,1.256,0.202,1.423,0.819c0.261,0.971,6.269,23.941-3.209,40.1    c-4.087,6.964-10.465,11.586-18.96,13.732C304.687,349.043,301.469,349.445,298.697,349.445z"/>
		<path style="fill:#241726;" d="M306.292,399.679c-4.041,0-8.761-1.163-14.067-4.411c-8.695-5.32-13.424-11.856-14.056-19.426    c-1.261-15.104,14.169-28.708,14.827-29.28c0.484-0.424,1.218-0.367,1.637,0.113c0.421,0.483,0.371,1.218-0.113,1.637    c-0.152,0.134-15.205,13.416-14.037,27.343c0.569,6.788,4.928,12.72,12.953,17.63c8.873,5.431,17.61,5.391,24.607-0.116    c8.275-6.509,11.513-18.088,9.345-24.819c-0.82-2.547-2.823-5.629-7.709-5.84c-12.543-0.567-18.833,6.488-19.151,11.416    c-0.255,3.946,2.876,6.681,8.171,7.135c0.638,0.054,1.112,0.617,1.057,1.256c-0.056,0.637-0.62,1.086-1.256,1.057    c-8.008-0.687-10.548-5.599-10.289-9.597c0.461-7.121,8.708-14.106,21.568-13.589c4.854,0.213,8.341,2.857,9.82,7.45    c2.702,8.389-1.932,20.916-10.119,27.357C316.777,397.123,312.28,399.679,306.292,399.679z"/>
		<path style="fill:#241726;" d="M303.032,431.145c-0.601,0-1.109-0.463-1.157-1.073c-0.012-0.163-1.375-16.517-9.916-23.229    c-3.079-2.42-6.777-3.293-11-2.61c-7.224,1.177-11.471,4.245-12.279,8.879c-0.915,5.234,2.929,11.228,7.091,13.539    c1.143,0.637,2.097,0.714,3.009,0.24c3.673-1.889,5.532-11.557,5.939-15.124c0.071-0.637,0.625-1.1,1.285-1.023    c0.637,0.073,1.094,0.649,1.022,1.286c-0.163,1.438-1.752,14.131-7.182,16.925c-1.115,0.576-2.921,0.993-5.2-0.272    c-4.841-2.69-9.372-9.561-8.253-15.97c0.568-3.252,3.167-8.976,14.195-10.77c4.887-0.805,9.198,0.238,12.811,3.08    c9.343,7.345,10.738,24.161,10.793,24.873c0.049,0.64-0.429,1.197-1.068,1.245C303.092,431.143,303.061,431.145,303.032,431.145z"/>
	</g>
	<path style="fill:#A8D5CB;" d="M100.65,142.123c0,0,14.224,36.575,16.933,35.898c2.709-0.677,12.192-9.482,13.546-7.451   c1.355,2.032,16.256,19.642,16.256,14.224c0-5.419-6.773-31.157-10.837-32.511s-16.256,8.128-14.901,6.096   C121.647,158.379,98.618,136.705,100.65,142.123z"/>
	<path style="fill:#A8D5CB;" d="M430.484,176.195c0,0-33.039,21.177-31.839,23.699c1.2,2.522,11.707,10.075,9.983,11.805   c-1.724,1.73-16.039,19.82-10.727,18.748c5.311-1.072,29.201-12.802,29.725-17.054c0.524-4.252-11.183-14.327-8.923-13.401   C418.703,199.992,435.393,173.132,430.484,176.195z"/>
	<path style="fill:#A8D5CB;" d="M472.606,370.755c0,0-20.825-33.262-23.359-32.089c-2.534,1.173-10.199,11.599-11.91,9.857   c-1.711-1.742-19.648-16.249-18.633-10.926c1.015,5.323,12.491,29.336,16.737,29.905c4.246,0.569,14.445-11.03,13.495-8.78   C448.935,358.721,475.617,375.697,472.606,370.755z"/>
	<path style="fill:#F7D76F;" d="M481.311,262.77c0,0-38.041-9.639-39.062-7.039s0.648,15.432-1.792,15.356   s-25.43,1.841-21.017,4.986s29.305,12.563,32.767,10.039c3.461-2.524,2.813-17.955,3.682-15.673   C455.888,270.438,486.903,264.259,481.311,262.77z"/>
	<path style="fill:#F7D76F;" d="M19.514,266.072c0,0,28.032,27.464,30.221,25.73c2.189-1.734,7.201-13.664,9.272-12.371   c2.072,1.293,22.905,11.198,20.673,6.261c-2.233-4.937-19.01-25.597-23.272-25.157s-11.462,14.104-11.065,11.695   C45.344,272.231,15.43,261.972,19.514,266.072z"/>
	<path style="fill:#A8D5CB;" d="M41.487,394.21c0,0,37.785-10.599,37.375-13.361c-0.411-2.762-8.252-13.056-6.098-14.207   s21.13-14.268,15.737-14.795c-5.393-0.527-31.668,3.71-33.411,7.623c-1.744,3.913,6.508,16.969,4.618,15.423   C59.708,374.894,35.897,395.705,41.487,394.21z"/>
	<path style="fill:#241726;" d="M278.757,170.348c-0.679,0-1.357-0.018-2.037-0.059c-0.641-0.036-1.128-0.587-1.091-1.227   c0.037-0.64,0.578-1.17,1.227-1.091c1.501,0.084,2.998,0.066,4.482-0.048c0.627-0.107,1.197,0.429,1.246,1.068   c0.049,0.64-0.43,1.197-1.069,1.247C280.601,170.307,279.681,170.346,278.757,170.348z M272.188,169.693   c-0.076,0-0.153-0.007-0.23-0.023c-1.541-0.311-3.098-0.739-4.627-1.27c-0.606-0.211-0.925-0.873-0.714-1.479   c0.211-0.608,0.873-0.921,1.479-0.717c1.43,0.499,2.884,0.898,4.321,1.188c0.629,0.127,1.036,0.739,0.909,1.367   C273.215,169.312,272.73,169.693,272.188,169.693z M286.016,169.591c-0.54,0-1.023-0.376-1.136-0.925   c-0.129-0.628,0.274-1.243,0.903-1.372c1.431-0.297,2.897-0.687,4.358-1.166c0.616-0.193,1.265,0.136,1.464,0.744   c0.2,0.61-0.134,1.265-0.743,1.465c-1.543,0.503-3.093,0.916-4.609,1.229C286.173,169.584,286.095,169.591,286.016,169.591z    M294.837,166.731c-0.447,0-0.872-0.259-1.064-0.694c-0.259-0.585,0.008-1.27,0.594-1.531c1.347-0.592,2.718-1.27,4.076-2.012   c0.565-0.311,1.267-0.102,1.576,0.46c0.307,0.565,0.1,1.27-0.463,1.576c-1.415,0.773-2.846,1.481-4.253,2.102   C295.152,166.699,294.992,166.731,294.837,166.731z M263.442,166.649c-0.175,0-0.353-0.039-0.519-0.122   c-1.389-0.699-2.78-1.501-4.134-2.388c-0.536-0.352-0.686-1.07-0.336-1.606c0.353-0.54,1.073-0.687,1.608-0.336   c1.28,0.837,2.593,1.597,3.903,2.252c0.574,0.288,0.805,0.986,0.517,1.56C264.278,166.416,263.868,166.649,263.442,166.649z    M302.991,162.295c-0.381,0-0.753-0.186-0.975-0.531c-0.349-0.537-0.196-1.256,0.342-1.606c1.284-0.832,2.535-1.705,3.753-2.613   c0.513-0.383,1.241-0.274,1.624,0.238c0.383,0.515,0.277,1.243-0.238,1.626c-1.256,0.934-2.549,1.839-3.876,2.699   C303.426,162.234,303.208,162.295,302.991,162.295z M255.673,161.592c-0.255,0-0.513-0.084-0.728-0.256   c-1.192-0.962-2.388-2.016-3.556-3.139c-0.463-0.442-0.477-1.179-0.034-1.642c0.443-0.458,1.18-0.479,1.642-0.032   c1.119,1.073,2.266,2.084,3.406,3.003c0.499,0.404,0.577,1.134,0.175,1.633C256.349,161.444,256.013,161.592,255.673,161.592z    M171.156,158.435c-0.071,0-0.143-0.007-0.215-0.02c-0.63-0.118-1.045-0.726-0.926-1.356c0.186-0.989,0.418-1.959,0.695-2.905   c0.18-0.615,0.828-0.962,1.441-0.787c0.616,0.179,0.968,0.825,0.788,1.44c-0.256,0.873-0.471,1.767-0.643,2.683   C172.191,158.047,171.703,158.435,171.156,158.435z M333.422,156.961c-0.615,0-1.127-0.483-1.159-1.102   c-0.032-0.642,0.462-1.186,1.101-1.218c1.386-0.07,2.872-0.272,4.419-0.599c0.636-0.118,1.244,0.268,1.377,0.896   s-0.269,1.243-0.896,1.377c-1.667,0.352-3.276,0.569-4.782,0.644C333.461,156.961,333.441,156.961,333.422,156.961z    M310.449,156.752c-0.332,0-0.661-0.141-0.891-0.415c-0.412-0.492-0.347-1.225,0.144-1.635c1.187-0.996,2.332-2.014,3.434-3.041   c0.469-0.435,1.204-0.41,1.642,0.057c0.438,0.467,0.412,1.202-0.057,1.64c-1.131,1.055-2.308,2.1-3.526,3.123   C310.976,156.664,310.712,156.752,310.449,156.752z M328.797,156.691c-0.069,0-0.139-0.007-0.21-0.018   c-1.713-0.313-3.3-0.864-4.716-1.64c-0.562-0.308-0.769-1.014-0.46-1.576c0.307-0.562,1.014-0.771,1.576-0.46   c1.197,0.655,2.549,1.123,4.017,1.39c0.63,0.116,1.049,0.721,0.933,1.352C329.835,156.299,329.347,156.691,328.797,156.691z    M248.957,155.192c-0.307,0-0.615-0.122-0.842-0.363c-1.07-1.129-2.151-2.209-3.237-3.236c-0.466-0.44-0.488-1.175-0.046-1.642   c0.438-0.465,1.174-0.49,1.641-0.045c1.118,1.055,2.228,2.166,3.328,3.327c0.441,0.465,0.422,1.2-0.044,1.642   C249.531,155.086,249.244,155.192,248.957,155.192z M342.504,155.115c-0.488,0-0.941-0.308-1.102-0.796   c-0.202-0.61,0.128-1.265,0.737-1.467c1.371-0.454,2.8-1,4.248-1.624c0.586-0.263,1.271,0.018,1.525,0.605   c0.254,0.59-0.017,1.272-0.607,1.526c-1.508,0.651-3.001,1.222-4.436,1.696C342.748,155.097,342.625,155.115,342.504,155.115z    M320.831,152.285c-0.322,0-0.643-0.134-0.872-0.395c-0.57-0.649-1.1-1.363-1.584-2.136c-0.099,0.102-0.197,0.204-0.297,0.306   c-0.445,0.463-1.18,0.469-1.642,0.023c-0.459-0.449-0.468-1.184-0.02-1.642c0.272-0.281,0.542-0.56,0.807-0.841   c-0.181-0.549,0.073-1.161,0.61-1.413c0.253-0.118,0.528-0.136,0.774-0.077c0.316-0.347,0.626-0.692,0.93-1.036   c0.424-0.481,1.16-0.526,1.639-0.102c0.481,0.426,0.526,1.159,0.101,1.64c-0.405,0.458-0.821,0.921-1.247,1.386   c0.5,0.873,1.06,1.662,1.674,2.361c0.423,0.481,0.376,1.216-0.105,1.637C321.377,152.189,321.104,152.285,320.831,152.285z    M351.047,151.459c-0.42,0-0.824-0.227-1.032-0.626c-0.295-0.569-0.074-1.27,0.496-1.565c2.404-1.25,3.932-2.241,3.948-2.25   c0.535-0.349,1.256-0.197,1.606,0.34c0.35,0.537,0.197,1.256-0.34,1.606c-0.065,0.043-1.631,1.057-4.143,2.363   C351.41,151.418,351.228,151.459,351.047,151.459z M173.493,151.314c-0.17,0-0.344-0.039-0.507-0.118   c-0.577-0.279-0.816-0.975-0.536-1.551c0.704-1.447,1.534-2.842,2.465-4.15c0.372-0.522,1.096-0.646,1.619-0.272   c0.523,0.372,0.644,1.098,0.272,1.619c-0.857,1.204-1.62,2.488-2.268,3.819C174.336,151.074,173.924,151.314,173.493,151.314z    M242.211,148.815c-0.263,0-0.53-0.088-0.747-0.272c-1.188-1.002-2.385-1.948-3.584-2.842c-0.514-0.383-0.62-1.111-0.237-1.626   c0.384-0.515,1.111-0.619,1.625-0.238c1.236,0.921,2.469,1.898,3.693,2.928c0.49,0.415,0.553,1.148,0.139,1.637   C242.871,148.674,242.542,148.815,242.211,148.815z M316.794,144.023c-0.519,0-0.992-0.352-1.125-0.878   c-0.203-0.805-0.382-1.656-0.534-2.551c-0.127-0.739-0.237-1.454-0.33-2.141c-0.085-0.635,0.361-1.22,0.996-1.304   c0.642-0.116,1.221,0.361,1.306,0.996c0.088,0.66,0.194,1.347,0.316,2.057c0.143,0.835,0.308,1.626,0.498,2.377   c0.156,0.621-0.22,1.252-0.842,1.408C316.983,144.012,316.888,144.023,316.794,144.023z M178.85,143.785   c-0.295,0-0.591-0.111-0.816-0.336c-0.456-0.451-0.46-1.186-0.009-1.642c1.119-1.132,2.346-2.191,3.648-3.152   c0.516-0.376,1.243-0.272,1.624,0.245c0.381,0.515,0.271,1.243-0.245,1.624c-1.205,0.889-2.342,1.871-3.376,2.916   C179.449,143.669,179.15,143.785,178.85,143.785z M323.401,143.452c-0.254,0-0.51-0.084-0.725-0.254   c-0.501-0.401-0.582-1.132-0.18-1.633c1.035-1.293,1.963-2.524,2.772-3.658c0.373-0.519,1.099-0.637,1.619-0.27   c0.522,0.374,0.643,1.098,0.27,1.621c-0.832,1.166-1.785,2.429-2.85,3.758C324.079,143.302,323.742,143.452,323.401,143.452z    M234.757,143.286c-0.215,0-0.433-0.059-0.628-0.186c-1.287-0.83-2.605-1.617-3.918-2.343c-0.561-0.308-0.765-1.016-0.456-1.576   c0.31-0.565,1.016-0.771,1.578-0.456c1.358,0.748,2.723,1.565,4.054,2.424c0.539,0.347,0.694,1.066,0.347,1.606   C235.512,143.098,235.138,143.286,234.757,143.286z M226.625,138.812c-0.161,0-0.325-0.034-0.483-0.107   c-1.379-0.63-2.795-1.213-4.208-1.73c-0.602-0.22-0.912-0.887-0.692-1.49c0.22-0.601,0.888-0.909,1.49-0.692   c1.47,0.537,2.943,1.143,4.378,1.803c0.583,0.265,0.839,0.955,0.571,1.538C227.487,138.56,227.065,138.812,226.625,138.812z    M186.284,138.272c-0.414,0-0.814-0.222-1.024-0.61c-0.304-0.565-0.092-1.27,0.473-1.574c1.388-0.746,2.855-1.413,4.364-1.984   c0.598-0.227,1.27,0.075,1.497,0.676c0.227,0.599-0.076,1.27-0.676,1.497c-1.413,0.535-2.787,1.159-4.085,1.857   C186.659,138.227,186.47,138.272,186.284,138.272z M328.772,135.854c-0.201,0-0.404-0.052-0.589-0.161   c-0.553-0.327-0.736-1.039-0.41-1.59c0.413-0.698,0.731-1.299,0.949-1.778c0.279-0.615,0.421-1.27,0.421-1.948   c0-0.642,0.519-1.166,1.161-1.166c0.642,0,1.161,0.517,1.161,1.159v0.007c0,1.011-0.211,1.989-0.628,2.907   c-0.244,0.54-0.601,1.213-1.064,1.998C329.556,135.65,329.168,135.854,328.772,135.854z M217.911,135.634   c-0.102,0-0.204-0.014-0.306-0.041c-1.488-0.406-2.978-0.744-4.427-1.002c-0.632-0.113-1.052-0.717-0.939-1.347   c0.113-0.633,0.711-1.048,1.347-0.939c1.518,0.272,3.075,0.624,4.629,1.048c0.619,0.168,0.984,0.807,0.815,1.426   C218.89,135.294,218.422,135.634,217.911,135.634z M194.943,134.988c-0.524,0-0.999-0.356-1.127-0.889   c-0.151-0.621,0.231-1.25,0.855-1.402c1.533-0.37,3.114-0.658,4.698-0.853c0.618-0.091,1.216,0.372,1.294,1.009   c0.079,0.637-0.373,1.218-1.01,1.295c-1.496,0.186-2.988,0.456-4.435,0.807C195.125,134.977,195.034,134.988,194.943,134.988z    M315.555,134.834c-0.625,0-1.141-0.497-1.16-1.125c-0.01-0.347-0.015-0.683-0.015-1.011c0-1.386,0.091-2.676,0.271-3.835   c0.1-0.63,0.7-1.055,1.326-0.968c0.634,0.098,1.068,0.692,0.97,1.327c-0.162,1.039-0.244,2.209-0.244,3.477   c0,0.306,0.005,0.619,0.015,0.939c0.019,0.642-0.484,1.177-1.126,1.197C315.58,134.834,315.567,134.834,315.555,134.834z    M208.782,133.997c-0.033,0-0.066-0.002-0.099-0.005c-1.271-0.107-2.554-0.161-3.81-0.161l-0.711,0.007   c-0.615-0.043-1.17-0.499-1.183-1.138c-0.011-0.642,0.499-1.172,1.14-1.184l0.754-0.007c1.321,0,2.669,0.057,4.005,0.17   c0.64,0.054,1.113,0.615,1.059,1.254C209.887,133.539,209.38,133.997,208.782,133.997z M328.825,127.203   c-0.367,0-0.728-0.172-0.954-0.497c-0.776-1.111-1.852-2.08-3.03-2.724c-0.564-0.306-0.77-1.014-0.461-1.576   c0.307-0.562,1.011-0.769,1.575-0.46c1.488,0.812,2.845,2.032,3.821,3.431c0.366,0.526,0.238,1.25-0.288,1.617   C329.285,127.135,329.054,127.203,328.825,127.203z M317.268,125.833c-0.209,0-0.421-0.057-0.611-0.175   c-0.544-0.338-0.712-1.055-0.374-1.599c1.082-1.744,2.622-2.83,4.453-3.143c0.636-0.107,1.231,0.317,1.339,0.95   c0.108,0.633-0.317,1.231-0.949,1.34c-1.172,0.2-2.139,0.898-2.87,2.077C318.036,125.638,317.657,125.833,317.268,125.833z"/>
	<path style="fill:#241726;" d="M242.472,488.258c-1.441,0-2.835-0.025-4.18-0.07c-0.641-0.023-1.143-0.56-1.12-1.202   c0.023-0.64,0.558-1.145,1.2-1.12c1.377,0.048,2.847,0.07,4.286,0.07h0.317c0.642,0,1.161,0.519,1.161,1.161   c0,0.642-0.519,1.161-1.161,1.161h-0.315C242.597,488.258,242.534,488.258,242.472,488.258z M247.618,488.174   c-0.623,0-1.137-0.494-1.159-1.12c-0.023-0.642,0.48-1.179,1.12-1.202c1.574-0.052,3.101-0.138,4.584-0.252   c0.657-0.107,1.199,0.429,1.247,1.068c0.049,0.64-0.429,1.197-1.068,1.245c-1.515,0.118-3.076,0.204-4.684,0.261   C247.645,488.174,247.631,488.174,247.618,488.174z M233.699,487.936c-0.029,0-0.06,0-0.091-0.005   c-1.641-0.125-3.198-0.286-4.677-0.479c-0.636-0.084-1.085-0.667-1.001-1.302c0.082-0.637,0.661-1.091,1.301-1.002   c1.441,0.188,2.96,0.345,4.557,0.469c0.64,0.048,1.117,0.606,1.068,1.245C234.809,487.474,234.3,487.936,233.699,487.936z    M310.175,487.684c-0.019,0-0.039,0-0.058-0.002c-1.623-0.079-3.223-0.256-4.756-0.528c-0.632-0.111-1.053-0.714-0.941-1.345   c0.11-0.63,0.718-1.068,1.345-0.941c1.438,0.254,2.94,0.42,4.465,0.497c0.641,0.032,1.135,0.576,1.103,1.216   C311.304,487.201,310.79,487.684,310.175,487.684z M314.813,487.655c-0.61,0-1.121-0.476-1.158-1.093   c-0.039-0.64,0.45-1.188,1.09-1.227c1.474-0.088,2.99-0.252,4.507-0.488c0.64-0.088,1.228,0.338,1.326,0.968   c0.099,0.635-0.336,1.229-0.97,1.327c-1.589,0.247-3.178,0.417-4.725,0.51C314.86,487.655,314.837,487.655,314.813,487.655z    M256.869,487.451c-0.577,0-1.078-0.431-1.151-1.018c-0.079-0.635,0.372-1.216,1.009-1.295c1.564-0.195,3.071-0.424,4.527-0.687   c0.629-0.1,1.235,0.308,1.348,0.937c0.113,0.633-0.306,1.236-0.938,1.349c-1.495,0.268-3.045,0.506-4.651,0.705   C256.966,487.449,256.917,487.451,256.869,487.451z M224.502,486.716c-0.075,0-0.152-0.007-0.228-0.023   c-1.618-0.322-3.168-0.698-4.608-1.123c-0.616-0.179-0.968-0.826-0.788-1.44c0.181-0.615,0.828-0.964,1.441-0.787   c1.375,0.401,2.859,0.764,4.409,1.073c0.629,0.125,1.038,0.737,0.912,1.365C225.529,486.335,225.045,486.716,224.502,486.716z    M323.984,486.26c-0.525,0-1.002-0.358-1.128-0.894c-0.149-0.624,0.237-1.25,0.862-1.397c1.44-0.342,2.919-0.751,4.395-1.213   c0.616-0.206,1.265,0.147,1.456,0.76c0.192,0.61-0.149,1.263-0.76,1.454c-1.53,0.481-3.062,0.905-4.556,1.259   C324.163,486.251,324.073,486.26,323.984,486.26z M301.063,486.047c-0.12,0-0.243-0.018-0.364-0.059   c-1.543-0.508-3.04-1.136-4.446-1.862c-0.569-0.295-0.793-0.996-0.499-1.565c0.294-0.569,0.997-0.796,1.565-0.499   c1.298,0.671,2.681,1.25,4.108,1.721c0.609,0.2,0.94,0.857,0.738,1.465C302.005,485.739,301.551,486.047,301.063,486.047z    M265.999,485.802c-0.524,0-0.999-0.356-1.127-0.889c-0.151-0.624,0.232-1.25,0.856-1.402c1.504-0.363,2.982-0.773,4.394-1.218   c0.608-0.188,1.264,0.145,1.456,0.757c0.194,0.61-0.145,1.263-0.757,1.456c-1.462,0.463-2.992,0.887-4.548,1.263   C266.182,485.791,266.09,485.802,265.999,485.802z M215.621,484.069c-0.153,0-0.307-0.029-0.457-0.093   c-1.564-0.669-3.001-1.422-4.275-2.238c-0.541-0.345-0.697-1.064-0.352-1.603c0.345-0.542,1.062-0.698,1.603-0.352   c1.166,0.746,2.49,1.44,3.937,2.057c0.59,0.252,0.863,0.934,0.611,1.524C216.5,483.806,216.071,484.069,215.621,484.069z    M332.849,483.503c-0.468,0-0.909-0.286-1.085-0.748c-0.228-0.599,0.074-1.27,0.672-1.499c1.184-0.449,2.388-0.939,3.615-1.472   l0.619-0.27c0.59-0.261,1.271,0.002,1.533,0.59c0.262,0.585-0.002,1.272-0.587,1.533l-0.643,0.279   c-1.258,0.547-2.496,1.05-3.711,1.513C333.126,483.478,332.986,483.503,332.849,483.503z M274.841,483.001   c-0.459,0-0.895-0.274-1.077-0.728c-0.239-0.594,0.049-1.27,0.643-1.51c1.432-0.576,2.822-1.209,4.132-1.875   c0.57-0.295,1.269-0.063,1.561,0.506c0.291,0.571,0.065,1.272-0.507,1.563c-1.371,0.698-2.823,1.358-4.318,1.962   C275.132,482.974,274.986,483.001,274.841,483.001z M181.812,482.448c-1.333,0-2.67-0.093-3.972-0.277   c-0.635-0.088-1.077-0.678-0.988-1.311c0.088-0.635,0.679-1.073,1.312-0.989c1.195,0.168,2.422,0.254,3.648,0.254l0.788-0.011   c0.009,0,0.019,0,0.028,0c0.628,0,1.145,0.501,1.161,1.132c0.016,0.642-0.491,1.175-1.133,1.191L181.812,482.448z M187.239,481.929   c-0.547,0-1.034-0.388-1.14-0.946c-0.119-0.63,0.295-1.236,0.924-1.356c1.417-0.268,2.876-0.653,4.334-1.143   c0.609-0.202,1.267,0.122,1.471,0.73c0.204,0.608-0.124,1.265-0.731,1.47c-1.558,0.524-3.119,0.937-4.64,1.225   C187.383,481.922,187.311,481.929,187.239,481.929z M292.865,481.781c-0.245,0-0.492-0.077-0.702-0.236   c-1.298-0.989-2.501-2.091-3.575-3.277c-0.431-0.476-0.393-1.211,0.082-1.642c0.475-0.426,1.21-0.392,1.64,0.082   c0.979,1.082,2.075,2.086,3.26,2.989c0.51,0.388,0.609,1.116,0.221,1.626C293.563,481.623,293.216,481.781,292.865,481.781z    M173.488,481.153c-0.117,0-0.235-0.018-0.353-0.054c-1.497-0.476-2.997-1.086-4.456-1.81c-0.575-0.286-0.81-0.982-0.524-1.558   c0.285-0.574,0.983-0.807,1.556-0.524c1.355,0.674,2.744,1.238,4.13,1.678c0.61,0.195,0.948,0.848,0.754,1.458   C174.437,480.838,173.98,481.153,173.488,481.153z M341.383,479.842c-0.441,0-0.862-0.252-1.057-0.678   c-0.266-0.583-0.01-1.272,0.573-1.54c1.443-0.658,2.837-1.311,4.186-1.957c0.576-0.279,1.272-0.034,1.549,0.547   c0.277,0.578,0.032,1.272-0.547,1.549c-1.361,0.651-2.768,1.309-4.223,1.975C341.708,479.808,341.544,479.842,341.383,479.842z    M196.065,479.096c-0.456,0-0.889-0.27-1.074-0.719c-0.244-0.594,0.04-1.272,0.633-1.517c1.482-0.608,2.872-1.231,4.174-1.864   c0.577-0.279,1.272-0.039,1.551,0.537c0.28,0.578,0.04,1.272-0.537,1.553c-1.343,0.651-2.776,1.293-4.305,1.923   C196.363,479.069,196.213,479.096,196.065,479.096z M207.922,479.008c-0.305,0-0.609-0.12-0.837-0.356   c-1.072-1.113-1.962-2.331-2.652-3.624c-0.408-0.007-0.81-0.197-1.031-0.576c-0.322-0.556-0.135-1.265,0.418-1.587   c1.365-0.796,2.645-1.624,3.804-2.458c0.522-0.379,1.25-0.256,1.621,0.263c0.374,0.519,0.257,1.245-0.263,1.619   c-0.782,0.565-1.615,1.123-2.488,1.671c0.589,1.095,1.348,2.129,2.263,3.082c0.444,0.463,0.43,1.197-0.032,1.642   C208.501,478.901,208.211,479.008,207.922,479.008z M283.092,478.77c-0.381,0-0.755-0.188-0.976-0.531   c-0.348-0.54-0.193-1.259,0.346-1.606c1.121-0.723,2.196-1.497,3.201-2.3c-0.841-1.399-1.534-2.871-2.058-4.377   c-0.211-0.606,0.109-1.268,0.714-1.479c0.61-0.209,1.268,0.109,1.479,0.717c0.475,1.365,1.107,2.703,1.874,3.973   c0.192,0.315,0.214,0.687,0.094,1.007c0.372,0.494,0.293,1.197-0.188,1.594c-1.197,0.989-2.495,1.937-3.858,2.814   C283.525,478.711,283.307,478.77,283.092,478.77z M165.194,477.062c-0.223,0-0.45-0.064-0.65-0.2   c-1.271-0.86-2.547-1.837-3.791-2.903c-0.486-0.417-0.542-1.152-0.125-1.637s1.151-0.54,1.637-0.127   c1.177,1.009,2.381,1.932,3.58,2.744c0.531,0.358,0.67,1.082,0.311,1.612C165.932,476.883,165.566,477.062,165.194,477.062z    M349.758,475.835c-0.426,0-0.836-0.236-1.04-0.642c-0.287-0.574-0.054-1.27,0.519-1.558c1.426-0.714,2.797-1.413,4.119-2.1   c0.568-0.302,1.269-0.075,1.566,0.494c0.295,0.569,0.074,1.27-0.496,1.565c-1.331,0.692-2.713,1.399-4.151,2.118   C350.11,475.796,349.933,475.835,349.758,475.835z M290.21,472.853c-0.281,0-0.564-0.102-0.786-0.306   c-0.473-0.435-0.502-1.17-0.068-1.642c1.035-1.125,1.962-2.302,2.753-3.499c0.354-0.533,1.072-0.685,1.609-0.327   c0.535,0.354,0.681,1.075,0.328,1.61c-0.859,1.297-1.863,2.572-2.982,3.79C290.835,472.726,290.523,472.853,290.21,472.853z    M357.997,471.551c-0.414,0-0.813-0.22-1.023-0.61c-0.305-0.565-0.094-1.27,0.471-1.574c1.415-0.762,2.768-1.501,4.065-2.218   c0.565-0.306,1.268-0.107,1.577,0.454c0.311,0.562,0.107,1.268-0.455,1.578c-1.304,0.721-2.664,1.465-4.086,2.232   C358.371,471.506,358.183,471.551,357.997,471.551z M158.136,471.043c-0.304,0-0.608-0.118-0.836-0.356   c-1.062-1.1-2.122-2.295-3.147-3.547c-0.407-0.494-0.333-1.227,0.162-1.633c0.496-0.408,1.228-0.333,1.634,0.163   c0.985,1.202,2.002,2.347,3.022,3.406c0.446,0.46,0.432,1.195-0.029,1.642C158.717,470.934,158.426,471.043,158.136,471.043z    M203.922,470.814c-0.576,0-1.075-0.426-1.151-1.014c-0.088-0.694-0.13-1.386-0.13-2.075c0.001-0.95,0.082-1.921,0.238-2.885   c0.103-0.633,0.694-1.07,1.333-0.959c0.633,0.102,1.062,0.698,0.959,1.331c-0.137,0.844-0.208,1.69-0.209,2.515   c0,0.587,0.035,1.184,0.112,1.778c0.082,0.635-0.369,1.218-1.004,1.299C204.021,470.812,203.971,470.814,203.922,470.814z    M211.893,469.571c-0.308,0-0.617-0.122-0.845-0.365c-0.44-0.467-0.418-1.202,0.049-1.642c1.143-1.077,2.132-2.186,2.938-3.3   c0.375-0.519,1.103-0.635,1.621-0.256c0.519,0.376,0.635,1.102,0.259,1.621c-0.891,1.227-1.976,2.447-3.226,3.626   C212.465,469.467,212.178,469.571,211.893,469.571z M413.181,467.081c-0.214,0-0.432-0.059-0.626-0.184   c-1.361-0.873-2.662-1.678-3.914-2.415c-0.552-0.324-0.736-1.036-0.41-1.59c0.325-0.553,1.035-0.737,1.59-0.41   c1.275,0.751,2.603,1.569,3.989,2.461c0.54,0.347,0.696,1.066,0.35,1.606C413.937,466.893,413.563,467.081,413.181,467.081z    M366.132,467.077c-0.408,0-0.804-0.215-1.016-0.599c-0.312-0.56-0.109-1.268,0.451-1.578c1.422-0.787,2.776-1.538,4.072-2.245   c0.561-0.304,1.269-0.1,1.575,0.465c0.307,0.562,0.1,1.268-0.464,1.576c-1.292,0.703-2.641,1.449-4.056,2.236   C366.515,467.029,366.322,467.077,366.132,467.077z M283.682,466.217c-0.589,0-1.093-0.444-1.154-1.043   c-0.065-0.642-0.098-1.272-0.098-1.894c0-1.05,0.093-2.082,0.277-3.066c0.118-0.628,0.728-1.048,1.355-0.928   c0.63,0.118,1.045,0.723,0.929,1.354c-0.158,0.844-0.238,1.733-0.238,2.64c0,0.544,0.028,1.098,0.086,1.658   c0.065,0.637-0.4,1.209-1.038,1.272C283.761,466.215,283.72,466.217,283.682,466.217z M295.263,465.117   c-0.147,0-0.297-0.027-0.442-0.088c-0.593-0.243-0.875-0.923-0.632-1.515c0.587-1.426,0.975-2.83,1.153-4.173   c0.084-0.637,0.679-1.086,1.303-1c0.636,0.086,1.083,0.669,0.999,1.304c-0.204,1.542-0.644,3.141-1.307,4.753   C296.152,464.847,295.719,465.117,295.263,465.117z M152.233,463.872c-0.363,0-0.72-0.17-0.947-0.488   c-0.932-1.311-1.806-2.626-2.619-3.926c-0.34-0.544-0.176-1.261,0.369-1.601s1.262-0.175,1.6,0.367   c0.79,1.263,1.637,2.542,2.542,3.812c0.372,0.522,0.251,1.247-0.272,1.619C152.701,463.802,152.465,463.872,152.233,463.872z    M374.303,462.67c-0.424,0-0.832-0.234-1.038-0.637c-0.289-0.571-0.06-1.27,0.511-1.56c1.48-0.748,2.896-1.422,4.267-2.007   c0.585-0.249,1.271,0.018,1.524,0.612c0.252,0.59-0.023,1.272-0.612,1.524c-1.328,0.567-2.696,1.218-4.13,1.944   C374.658,462.629,374.478,462.67,374.303,462.67z M405.168,462.396c-0.179,0-0.362-0.041-0.532-0.129   c-1.423-0.735-2.809-1.381-4.117-1.921c-0.593-0.243-0.875-0.921-0.632-1.515c0.245-0.594,0.924-0.878,1.516-0.63   c1.37,0.562,2.817,1.236,4.299,2.003c0.569,0.295,0.793,0.996,0.499,1.565C405.994,462.167,405.588,462.396,405.168,462.396z    M217.166,462.035c-0.127,0-0.256-0.02-0.383-0.066c-0.606-0.211-0.924-0.873-0.713-1.479c0.359-1.027,0.542-2.018,0.542-2.948   c0-0.365-0.028-0.712-0.084-1.039c-0.107-0.633,0.319-1.234,0.951-1.34c0.627-0.116,1.231,0.32,1.339,0.95   c0.076,0.449,0.116,0.928,0.116,1.429c0,1.191-0.226,2.44-0.671,3.715C218.095,461.736,217.646,462.035,217.166,462.035z    M205.315,461.736c-0.15,0-0.302-0.029-0.448-0.091c-0.592-0.247-0.871-0.928-0.624-1.519c0.641-1.529,1.44-2.969,2.374-4.279   c0.374-0.519,1.099-0.642,1.62-0.272c0.522,0.372,0.643,1.098,0.271,1.619c-0.823,1.154-1.558,2.479-2.123,3.83   C206.199,461.468,205.768,461.736,205.315,461.736z M382.851,459.099c-0.501,0-0.963-0.327-1.112-0.83   c-0.184-0.615,0.167-1.261,0.781-1.445c1.636-0.488,3.185-0.81,4.733-0.987c0.645-0.07,1.212,0.388,1.285,1.023   c0.074,0.637-0.384,1.213-1.022,1.286c-1.412,0.161-2.829,0.456-4.334,0.905C383.072,459.083,382.96,459.099,382.851,459.099z    M396.576,458.926c-0.101,0-0.203-0.014-0.305-0.041c-1.514-0.41-2.94-0.671-4.36-0.798c-0.64-0.057-1.11-0.621-1.053-1.261   c0.058-0.637,0.611-1.089,1.26-1.052c1.557,0.141,3.115,0.424,4.761,0.871c0.619,0.168,0.984,0.805,0.816,1.424   C397.556,458.586,397.088,458.926,396.576,458.926z M285.49,457.275c-0.211,0-0.423-0.057-0.615-0.177   c-0.544-0.34-0.709-1.057-0.368-1.601c0.88-1.406,2.014-2.579,3.369-3.481l0.227-0.147c0.539-0.354,1.256-0.193,1.604,0.345   c0.348,0.54,0.193,1.259-0.346,1.606l-0.197,0.129c-1.079,0.719-1.983,1.656-2.688,2.783   C286.256,457.082,285.877,457.275,285.49,457.275z M296.205,456.055c-0.491,0-0.947-0.313-1.106-0.805   c-0.3-0.937-0.931-2.109-2.224-2.39c-0.627-0.134-1.025-0.753-0.89-1.379c0.136-0.628,0.753-1.023,1.38-0.889   c1.854,0.399,3.254,1.801,3.945,3.946c0.196,0.61-0.139,1.265-0.751,1.46C296.442,456.037,296.322,456.055,296.205,456.055z    M147.29,455.992c-0.408,0-0.803-0.215-1.016-0.596c-0.812-1.458-1.54-2.864-2.184-4.173c-0.282-0.576-0.046-1.272,0.53-1.553   c0.575-0.286,1.271-0.045,1.555,0.528c0.628,1.277,1.338,2.647,2.129,4.068c0.312,0.56,0.11,1.268-0.45,1.578   C147.675,455.944,147.481,455.992,147.29,455.992z M210.779,454.359c-0.372,0-0.737-0.177-0.962-0.508   c-0.361-0.531-0.222-1.252,0.307-1.612c0.133-0.091,0.263-0.177,0.391-0.252c1.718-1.025,3.583-1.17,5.149-0.422   c0.579,0.274,0.827,0.966,0.551,1.547c-0.274,0.578-0.965,0.828-1.547,0.549c-0.87-0.41-1.916-0.306-2.962,0.32l-0.277,0.177   C211.232,454.293,211.004,454.359,210.779,454.359z M143.176,447.646c-0.449,0-0.877-0.261-1.067-0.701   c-1.158-2.671-1.738-4.354-1.762-4.422c-0.209-0.608,0.113-1.268,0.72-1.476c0.604-0.209,1.267,0.113,1.475,0.719   c0.006,0.018,0.579,1.676,1.699,4.259c0.254,0.587-0.016,1.27-0.604,1.526C143.486,447.617,143.329,447.646,143.176,447.646z"/>
	<g>
		<path style="fill:#EC7E96;" d="M250.356,36.216c34.153,0,53.85,50.626,59.146,66.358l10.96-4.541c0,0-11.742-73.214-73.214-73.214    s-73.905,87.028-73.905,87.028s5.618,0.965,12.964,2.144C188.091,105.06,203.367,36.216,250.356,36.216z"/>
		<path style="fill:#648F9F;" d="M249.838,50.203c-37.47,0-44.084,56.59-45.862,66.465c8.288,1.153,15.288,1.92,16.335,1.396    c2.763-1.381-0.691-53.875,25.556-52.493c26.247,1.381,26.247,52.493,26.247,52.493l20.446-8.47    C289.758,95.84,270.557,50.203,249.838,50.203z"/>
		<path style="fill:#F8D870;" d="M250.356,36.216c-46.99,0-62.265,68.844-64.049,77.776c5.463,0.877,11.875,1.87,17.669,2.676    c1.779-9.875,14.049-70.793,45.862-66.465c23.34,3.175,39.92,45.637,42.721,59.391l16.943-7.019    C304.206,86.842,284.51,36.216,250.356,36.216z"/>
	</g>
	<path style="fill:#241726;" d="M186.308,115.154c-0.083,0-0.168-0.009-0.252-0.027c-0.626-0.138-1.022-0.757-0.883-1.386   c0.044-0.197,4.507-20.077,14.646-39.56c13.543-26.03,31.087-39.569,50.563-39.127c43.903,0.977,60.09,66.588,60.249,67.25   c0.149,0.624-0.236,1.25-0.859,1.399c-0.62,0.145-1.248-0.236-1.399-0.86c-0.154-0.644-15.928-64.531-58.043-65.468   c-0.289-0.007-0.583-0.009-0.871-0.009c-44.505,0-61.847,76.101-62.018,76.877C187.321,114.784,186.841,115.154,186.308,115.154z"/>
	<path style="fill:#241726;" d="M203.977,117.83c-0.051,0-0.104-0.002-0.156-0.011c-0.636-0.086-1.082-0.669-0.996-1.306   c0.022-0.159,2.229-16.156,8.296-32.319c8.136-21.676,19.515-33.829,32.906-35.147c13.423-1.275,26.287,8.754,37.197,29.137   c8.123,15.179,12.414,30.949,12.457,31.108c0.167,0.619-0.201,1.256-0.82,1.422c-0.618,0.163-1.256-0.2-1.423-0.819   c-0.164-0.617-16.928-61.587-47.184-58.535c-30.323,2.98-39.043,64.839-39.127,65.465   C205.047,117.408,204.549,117.83,203.977,117.83z"/>
</g>















</svg>
